<svg width="50" height="50" viewBox="0 0 50 50" fill="none" xmlns="http://www.w3.org/2000/svg">
<path d="M25 11.4583C26.9339 11.4583 28.7885 12.2265 30.156 13.5939C31.5234 14.9614 32.2917 16.816 32.2917 18.7499C32.2917 20.6838 31.5234 22.5384 30.156 23.9059C28.7885 25.2734 26.9339 26.0416 25 26.0416C23.0661 26.0416 21.2115 25.2734 19.844 23.9059C18.4766 22.5384 17.7083 20.6838 17.7083 18.7499C17.7083 16.816 18.4766 14.9614 19.844 13.5939C21.2115 12.2265 23.0661 11.4583 25 11.4583ZM10.4167 16.6666C11.5833 16.6666 12.6667 16.9791 13.6042 17.5416C13.2917 20.5207 14.1667 23.4791 15.9583 25.7916C14.9167 27.7916 12.8333 29.1666 10.4167 29.1666C8.75906 29.1666 7.16935 28.5081 5.99725 27.336C4.82515 26.1639 4.16667 24.5742 4.16667 22.9166C4.16667 21.259 4.82515 19.6693 5.99725 18.4972C7.16935 17.3251 8.75906 16.6666 10.4167 16.6666ZM39.5833 16.6666C41.2409 16.6666 42.8306 17.3251 44.0028 18.4972C45.1749 19.6693 45.8333 21.259 45.8333 22.9166C45.8333 24.5742 45.1749 26.1639 44.0028 27.336C42.8306 28.5081 41.2409 29.1666 39.5833 29.1666C37.1667 29.1666 35.0833 27.7916 34.0417 25.7916C35.8581 23.4466 36.7012 20.492 36.3958 17.5416C37.3333 16.9791 38.4167 16.6666 39.5833 16.6666ZM11.4583 38.0207C11.4583 33.7082 17.5208 30.2082 25 30.2082C32.4792 30.2082 38.5417 33.7082 38.5417 38.0207V41.6666H11.4583V38.0207ZM0 41.6666V38.5416C0 35.6457 3.9375 33.2082 9.27083 32.4999C8.04167 33.9166 7.29167 35.8749 7.29167 38.0207V41.6666H0ZM50 41.6666H42.7083V38.0207C42.7083 35.8749 41.9583 33.9166 40.7292 32.4999C46.0625 33.2082 50 35.6457 50 38.5416V41.6666Z" fill="#FDFDFD"/>
</svg>
