<svg width="50" height="50" viewBox="0 0 50 50" fill="none" xmlns="http://www.w3.org/2000/svg">
<path d="M24.0845 1.79438C22.9305 1.77944 21.7487 2.63501 21.2158 3.98559C20.56 5.6477 21.1328 7.43091 22.4945 7.96802C23.8562 8.50532 25.4916 7.59477 26.1475 5.93257C26.8033 4.27046 26.2305 2.48725 24.8688 1.95014C24.6191 1.85073 24.3533 1.79794 24.0846 1.79438H24.0845ZM31.3843 3.35083C30.313 3.35141 29.1633 3.93911 28.3784 4.99868C27.1821 6.61333 27.2847 8.71548 28.6071 9.69536C29.9298 10.6753 31.9704 10.1596 33.1665 8.54497C34.3628 6.93032 34.2603 4.82817 32.9376 3.84829C32.4831 3.51137 31.9454 3.35053 31.3844 3.35093L31.3843 3.35083ZM37.9517 7.01587C36.9423 7.00346 35.848 7.43218 34.9761 8.27632C33.4263 9.7771 33.167 12.0208 34.3964 13.2904C35.6256 14.5599 37.8788 14.373 39.4286 12.8724C40.9784 11.3714 41.2378 9.12778 40.0085 7.85825C39.4706 7.30259 38.7366 7.02554 37.9516 7.01587H37.9517ZM22.6745 10.147C20.4763 10.1197 18.3407 10.8202 16.4733 12.4908C10.5127 17.8235 4.70626 25.4894 2.76173 37.79C0.490534 52.1582 18.1892 49.5627 16.4368 41.8882C14.1983 32.0848 19.7698 28.108 26.9837 29.7636C30.1905 30.5 33.4817 29.2851 35.3821 25.8148C37.6675 21.6416 34.6567 15.3834 29.242 12.1795C27.1316 10.9305 24.8729 10.1743 22.6746 10.1469L22.6745 10.147ZM43.8904 13.0859C42.8631 13.088 41.7758 13.3613 40.7564 13.9282C38.0379 15.4399 36.8355 18.4702 38.0737 20.697C39.3122 22.9238 42.521 23.5027 45.2394 21.991C47.9578 20.4792 49.1571 17.449 47.9189 15.2221C47.1448 13.8303 45.6027 13.0825 43.8905 13.0859H43.8904Z" fill="black"/>
</svg>
