<svg width="28" height="28" viewBox="0 0 28 28" fill="none" xmlns="http://www.w3.org/2000/svg">
<path d="M16.2458 22.1666C15.7597 22.1666 15.4144 21.9578 15.2098 21.5401C15.0053 21.1225 15.0395 20.7188 15.3125 20.3291L19.8333 14L15.3125 7.67081C15.0403 7.28193 15.0061 6.87826 15.2098 6.45982C15.4136 6.04137 15.759 5.83254 16.2458 5.83332C16.4597 5.83332 16.6542 5.88698 16.8292 5.99432C17.0042 6.10165 17.15 6.2327 17.2667 6.38748L22.1958 13.3291C22.2736 13.4264 22.332 13.5333 22.3708 13.65C22.4097 13.7666 22.4292 13.8833 22.4292 14C22.4292 14.1166 22.4097 14.2286 22.3708 14.336C22.332 14.4433 22.2736 14.5549 22.1958 14.6708L17.2667 21.6125C17.15 21.768 17.0042 21.8995 16.8292 22.0068C16.6542 22.1141 16.4597 22.1674 16.2458 22.1666ZM9.30417 22.1666C8.81806 22.1666 8.47312 21.9578 8.26934 21.5401C8.06556 21.1225 8.09939 20.7188 8.37084 20.3291L12.8917 14L8.37084 7.67081C8.09862 7.28193 8.06478 6.87826 8.26934 6.45982C8.47389 6.04137 8.81884 5.83254 9.30417 5.83332C9.51806 5.83332 9.71251 5.88698 9.88751 5.99432C10.0625 6.10165 10.2083 6.2327 10.325 6.38748L15.2542 13.3291C15.332 13.4264 15.3903 13.5333 15.4292 13.65C15.4681 13.7666 15.4875 13.8833 15.4875 14C15.4875 14.1166 15.4681 14.2333 15.4292 14.35C15.3903 14.4666 15.332 14.5736 15.2542 14.6708L10.325 21.6125C10.2083 21.768 10.0625 21.8995 9.88751 22.0068C9.71251 22.1141 9.51806 22.1674 9.30417 22.1666Z" fill="white"/>
</svg>
