<svg width="60" height="60" viewBox="0 0 60 60" fill="none" xmlns="http://www.w3.org/2000/svg">
<path d="M47.0575 27.82C49.4174 26.2049 51.1522 23.8295 51.9725 21.09C52.2225 21.43 52.4575 21.7825 52.6775 22.1475C54.1875 24.645 55 27.6575 55 31.2475C55 36.765 52.9175 40.6225 50.8 43.095C49.8348 44.2209 48.7252 45.2145 47.5 46.05V50.6225C47.5003 51.1972 47.3874 51.7664 47.1677 52.2975C46.948 52.8286 46.6258 53.3112 46.2195 53.7177C45.8132 54.1242 45.3308 54.4467 44.7998 54.6667C44.2689 54.8867 43.6997 55 43.125 55H40C39.0054 55 38.0516 54.6049 37.3483 53.9016C36.6451 53.1984 36.25 52.2446 36.25 51.25H31.25C31.25 52.2446 30.8549 53.1984 30.1516 53.9016C29.4484 54.6049 28.4946 55 27.5 55H24.375C23.2147 55 22.1019 54.5391 21.2814 53.7186C20.4609 52.8981 20 51.7853 20 50.625V48.9175C19.6083 48.7854 19.2214 48.6395 18.84 48.48C16.9149 47.6886 15.161 46.5324 13.675 45.075C12.1024 43.4891 10.7525 41.6969 9.6625 39.7475C9.58146 39.586 9.4657 39.4444 9.3235 39.3329C9.1813 39.2214 9.01618 39.1427 8.84 39.1025C7.76701 38.9238 6.79223 38.3702 6.08907 37.5402C5.38592 36.7103 5.00001 35.6578 5 34.57V30.1875C5 28.08 6.525 26.2825 8.6 25.9375C8.8175 25.9 9.14 25.6825 9.2925 25.2275C9.7725 23.785 10.705 21.6425 12.425 19.9225C13.6646 18.7075 15.0581 17.6602 16.57 16.8075C16.91 16.6125 17.225 16.445 17.5 16.3075V9.17499C17.5 6.82999 20.325 5.86749 21.85 7.38499C22.675 8.20749 23.875 9.30249 25.2025 10.22C26.5275 11.135 27.795 11.7375 28.8375 11.87C27.6012 14.3206 27.2059 17.1099 27.7125 19.8075C28.165 22.2 29.9975 23.7125 31.7175 24.4275L40.9575 28.2525C42.68 28.965 45.0425 29.19 47.0575 27.8175V27.82ZM20 27.4975C20.663 27.4975 21.2989 27.2341 21.7678 26.7653C22.2366 26.2964 22.5 25.6605 22.5 24.9975C22.5 24.3344 22.2366 23.6986 21.7678 23.2297C21.2989 22.7609 20.663 22.4975 20 22.4975C19.337 22.4975 18.7011 22.7609 18.2322 23.2297C17.7634 23.6986 17.5 24.3344 17.5 24.9975C17.5 25.6605 17.7634 26.2964 18.2322 26.7653C18.7011 27.2341 19.337 27.4975 20 27.4975ZM45.6475 25.755C46.8073 24.9607 47.7869 23.9311 48.5226 22.7333C49.2583 21.5354 49.7335 20.1961 49.9175 18.8025C50.1037 17.3693 49.9771 15.9129 49.5464 14.5333C49.1157 13.1538 48.3911 11.884 47.4225 10.8115C46.4538 9.7389 45.2643 8.88903 43.9356 8.32038C42.607 7.75173 41.1709 7.47781 39.7263 7.5175C38.2816 7.55719 36.8627 7.90953 35.5673 8.55027C34.2719 9.19101 33.1308 10.1049 32.2225 11.229C31.3143 12.3532 30.6605 13.6608 30.3061 15.0619C29.9518 16.463 29.9053 17.9242 30.17 19.345C30.2325 19.67 30.3425 19.975 30.495 20.2575C30.62 20.49 30.77 20.7075 30.945 20.9075C31.4 21.4325 32.01 21.8425 32.675 22.12L41.915 25.945C43.14 26.4525 44.5525 26.5025 45.6475 25.755Z" fill="black"/>
</svg>
