<svg width="50" height="50" viewBox="0 0 50 50" fill="none" xmlns="http://www.w3.org/2000/svg">
<path d="M24.5833 41.7187C23.4375 41.7187 22.4563 41.302 21.6396 40.4687C20.8229 39.6354 20.4153 38.6458 20.4167 37.5C20.4167 36.3541 20.825 35.3729 21.6417 34.5562C22.4583 33.7395 23.4389 33.3319 24.5833 33.3333L25.8333 32.1354C26.1111 31.8576 26.4326 31.6402 26.7979 31.4833C27.1632 31.3264 27.5361 31.2486 27.9167 31.25C28.7153 31.25 29.4014 31.5451 29.975 32.1354C30.5486 32.7257 30.8347 33.4201 30.8333 34.2187V35.1041C30.8333 35.7986 31.059 36.3715 31.5104 36.8229C31.9618 37.2743 32.5347 37.5 33.2292 37.5C33.75 37.5 34.2188 37.3437 34.6354 37.0312C35.0521 36.7187 35.3472 36.3194 35.5208 35.8333L36.1458 34.1145C36.4583 33.2812 36.9618 32.5951 37.6563 32.0562C38.3507 31.5173 39.1493 31.2486 40.0521 31.25C40.434 30.2777 40.7382 29.2708 40.9646 28.2291C41.191 27.1875 41.3035 26.1111 41.3021 25C41.3021 21.9097 40.5299 19.0882 38.9854 16.5354C37.441 13.9826 35.4181 11.9777 32.9167 10.5208V12.5C32.9167 13.6458 32.5083 14.627 31.6917 15.4437C30.875 16.2604 29.8944 16.668 28.75 16.6666H26.6667V20.8333C26.6667 21.4236 26.4667 21.9187 26.0667 22.3187C25.6667 22.7187 25.1722 22.918 24.5833 22.9166H22.5V26.4583C22.5 27.2222 22.2396 27.8645 21.7188 28.3854C21.1979 28.9062 20.5556 29.1666 19.7917 29.1666C19.3056 29.1666 18.8625 29.0625 18.4625 28.8541C18.0625 28.6458 17.7417 28.3507 17.5 27.9687L14.1667 22.9166H12.0833V25C12.0833 26.0763 11.7188 26.9965 10.9896 27.7604C10.2604 28.5243 9.39236 28.9757 8.38542 29.1145C9.2882 32.7257 11.2417 35.7291 14.2458 38.125C17.25 40.5208 20.6958 41.7187 24.5833 41.7187ZM28.75 29.1666C28.1597 29.1666 27.6646 28.9673 27.2646 28.5687C26.8646 28.1701 26.6653 27.675 26.6667 27.0833C26.6667 26.493 26.8667 25.9979 27.2667 25.5979C27.6667 25.1979 28.1611 24.9986 28.75 25H30.8333C31.4236 25 31.9188 25.2 32.3188 25.6C32.7188 26 32.9181 26.4944 32.9167 27.0833C32.9167 27.6736 32.7167 28.1687 32.3167 28.5687C31.9167 28.9687 31.4222 29.168 30.8333 29.1666H28.75ZM33.5938 22.9166C32.8993 22.9166 32.3521 22.6479 31.9521 22.1104C31.5521 21.5729 31.4569 20.9736 31.6667 20.3125L32.4479 18.0208C32.5868 17.6041 32.8299 17.2743 33.1771 17.0312C33.5243 16.7882 33.9063 16.6666 34.3229 16.6666C35.0174 16.6666 35.5646 16.9361 35.9646 17.475C36.3646 18.0138 36.4597 18.6125 36.25 19.2708L35.4688 21.5625C35.3299 21.9791 35.0868 22.309 34.7396 22.552C34.3924 22.7951 34.0104 22.9166 33.5938 22.9166ZM24.5833 45.8333C21.7014 45.8333 18.9931 45.2861 16.4583 44.1916C13.9236 43.0972 11.7188 41.6132 9.84375 39.7395C7.96875 37.8645 6.48472 35.6597 5.39167 33.125C4.29861 30.5902 3.75139 27.8819 3.75 25C3.75 22.118 4.29722 19.4097 5.39167 16.875C6.48611 14.3402 7.97014 12.1354 9.84375 10.2604C11.7188 8.38538 13.9236 6.90135 16.4583 5.80829C18.9931 4.71524 21.7014 4.16801 24.5833 4.16663C27.4653 4.16663 30.1736 4.71385 32.7083 5.80829C35.2431 6.90274 37.4479 8.38677 39.3229 10.2604C41.1979 12.1354 42.6826 14.3402 43.7771 16.875C44.8715 19.4097 45.4181 22.118 45.4167 25C45.4167 27.8819 44.8694 30.5902 43.775 33.125C42.6806 35.6597 41.1965 37.8645 39.3229 39.7395C37.4479 41.6145 35.2431 43.0993 32.7083 44.1937C30.1736 45.2882 27.4653 45.8347 24.5833 45.8333Z" fill="black"/>
</svg>
